<?xml version="1.0" encoding="UTF-8"?>
<!DOCTYPE svg PUBLIC "-//W3C//DTD SVG 1.1//EN" "http://www.w3.org/Graphics/SVG/1.1/DTD/svg11.dtd">
<!-- Creator: CorelDRAW -->
<svg xmlns="http://www.w3.org/2000/svg" xml:space="preserve" width="222.536mm" height="61.5925mm" style="shape-rendering:geometricPrecision; text-rendering:geometricPrecision; image-rendering:optimizeQuality; fill-rule:evenodd; clip-rule:evenodd"
viewBox="0 0 212.79 58.8949"
 xmlns:xlink="http://www.w3.org/1999/xlink">
 <defs>
  <style type="text/css">
   <![CDATA[
    .fil2 {fill:#373435}
    .fil1 {fill:black}
    .fil0 {fill:#EF6B01}
    .fil3 {fill:#373435;fill-rule:nonzero}
   ]]>
  </style>
 </defs>
 <g id="Capa_x0020_1">
  <metadata id="CorelCorpID_0Corel-Layer"/>
  <g id="_564867528">
   <g>
    <path id="_564869544" class="fil0" d="M8.80949 9.98323l53.7677 0 -6.59435 35.9093 -53.4416 0c-1.22642,0 -2.09293,-0.817361 -1.91938,-1.8098l5.64016 -32.2854c0.173359,-0.996936 1.31698,-1.81411 2.54742,-1.81411z"/>
    <path id="_564869688" class="fil1" d="M56.4828 46.4957l-53.9416 0c-0.8449,0 -1.60011,-0.32377 -2.07018,-0.880088 -0.387549,-0.463375 -0.543218,-1.04283 -0.439757,-1.63539l5.64006 -32.2874c0.224707,-1.29575 1.60403,-2.31191 3.13806,-2.31191l54.4905 0 -6.81715 37.1148zm-47.6734 -35.911l0 0c-0.935835,0 -1.82969,0.602312 -1.95706,1.31612l-5.63719 32.2856c-0.044559,0.242206 0.0159686,0.466053 0.176706,0.656241 0.237425,0.283036 0.669246,0.45018 1.14935,0.45018l52.9417 0 6.3728 -34.7081 -53.0464 0z"/>
   </g>
   <g>
    <polygon id="_564869064" class="fil0" points="65.2135,10.8075 58.9553,45.0699 75.4289,28.5964 "/>
    <path id="_564869424" class="fil1" d="M58.0167 46.8566l6.90005 -37.7703 11.2616 19.6101 -18.1616 18.1602zm7.49261 -34.3287l0 0 -5.6173 30.7563 14.784 -14.786 -9.16673 -15.9703z"/>
   </g>
   <g>
    <polygon id="_564868584" class="fil1" points="25.915,13.361 56.5597,13.361 55.552,19.1261 24.8268,19.1261 "/>
    <path id="_564868848" class="fil1" d="M56.0293 19.6939l-31.889 0 1.3034 -6.90072 31.793 0 -1.2074 6.90072zm-30.5175 -1.1374l0 0 29.5639 0 0.809425 -4.6285 -29.4986 0 -0.874734 4.6285z"/>
   </g>
   <g>
    <polygon id="_564868440" class="fil1" points="10.7595,13.3734 5.45829,41.7054 16.0743,41.7054 21.468,13.3734 "/>
    <path id="_564868272" class="fil1" d="M16.7782 42.5587l-12.349 0 5.62361 -30.0354 12.4423 0 -5.71694 30.0354zm-10.2954 -1.70252l0 0 8.88751 0 5.06749 -26.6319 -8.96956 0 -4.98545 26.6319z"/>
   </g>
   <g>
    <polygon id="_564868776" class="fil1" points="21.589,36.1746 52.5462,36.1746 51.5455,41.9379 20.479,41.953 "/>
    <path id="_564868392" class="fil1" d="M19.7909 42.5234l1.32711 -6.91583 32.1034 0 -1.19869 6.90349 -32.2318 0.012335zm2.26658 -5.77928l0 0 -0.890224 4.64093 29.9011 -0.0131956 0.804453 -4.62773 -29.8153 0z"/>
   </g>
   <g>
    <path id="_564868320" class="fil1" d="M16.9469 0.0990625c3.18415,0 5.76618,2.21475 5.76618,4.94337 0,2.72776 -2.58203,4.94079 -5.76618,4.94079 -3.18148,0 -5.76628,-2.21303 -5.76628,-4.94079 0,-2.72862 2.58481,-4.94337 5.76628,-4.94337z"/>
   </g>
   <g>
    <path id="_564868056" class="fil1" d="M16.9469 10.084c-3.23359,0 -5.86506,-2.26161 -5.86506,-5.04157 0,-2.77815 2.63147,-5.04244 5.86506,-5.04244 3.23435,0 5.86687,2.26429 5.86687,5.04244 0,2.77997 -2.63252,5.04157 -5.86687,5.04157zm0 -9.88416l0 0c-3.12334,0 -5.66397,2.17153 -5.66397,4.84259 0,2.66761 2.54063,4.84173 5.66397,4.84173 3.12401,0 5.66789,-2.17412 5.66789,-4.84173 0,-2.67105 -2.54388,-4.84259 -5.66789,-4.84259z"/>
   </g>
   <g>
    <polygon id="_564867936" class="fil1" points="23.7542,24.7833 54.5987,24.7833 53.5983,30.551 22.6834,30.551 "/>
    <path id="_564867984" class="fil1" d="M54.0763 31.1144l-32.0769 0 1.28236 -6.89546 31.9924 0 -1.19783 6.89546zm-30.7104 -1.13119l0 0 29.7553 0 0.802158 -4.63203 -29.698 0 -0.859434 4.63203z"/>
   </g>
   <path id="_564867552" class="fil2" d="M6.52809 58.7501l-1.60212 0 -0.296518 -6.86046 -1.30646 6.86046 -1.52227 0 1.7138 -8.20708 2.40743 0 0.252246 5.75041 2.79938 -5.75041 2.43573 0 -1.71763 8.20708 -1.54188 0 1.61761 -6.80902 -3.23933 6.80902zm10.2061 -1.81172l0 0 -3.25482 0 -0.985557 1.81172 -1.73331 0 4.63901 -8.20708 1.87731 0 1.33285 8.20708 -1.60106 0 -0.27443 -1.81172zm-0.208356 -1.36938l0 0 -0.476475 -3.30243 -1.98058 3.30243 2.45706 0zm4.47866 3.18109l0 0 -2.18368 0 3.62334 -4.15336 -2.03872 -4.05372 1.76429 0 0.80168 1.54035c0.0251481,0.0558422 0.210173,0.434689 0.545609,1.13893 0.0242875,0.032224 0.0496269,0.0838589 0.0749662,0.149263 0.457065,-0.557753 0.838493,-1.01233 1.14773,-1.36766l1.29479 -1.46089 2.11952 0 -3.75654 4.32251 2.02112 3.88457 -1.90246 0 -0.614742 -1.23407c-0.322144,-0.655476 -0.537099,-1.12315 -0.638265,-1.40858 -0.147924,0.219926 -0.521417,0.6746 -1.12727,1.3667l-1.13138 1.27596zm6.21206 0l0 0 1.71552 -8.20708 1.68789 0 -1.71294 8.20708 -1.69047 0zm7.97836 0l0 0 -1.60212 0 -0.296901 -6.86046 -1.30741 6.86046 -1.52036 0 1.71504 -8.20708 2.40657 0 0.250907 5.75041 2.79852 -5.75041 2.43765 0 -1.72069 8.20708 -1.53968 0 1.6178 -6.80902 -3.23933 6.80902zm5.36181 -3.21944l0 0c0,-0.483456 0.0758268,-0.994928 0.2205,-1.53346 0.187798,-0.720881 0.47791,-1.3448 0.866893,-1.87282 0.393095,-0.532318 0.886208,-0.949413 1.47848,-1.25846 0.593515,-0.311531 1.2663,-0.463375 2.02638,-0.463375 1.01434,0 1.83533,0.318511 2.46002,0.946927 0.628416,0.62832 0.937556,1.46959 0.937556,2.50726 0,0.867466 -0.202332,1.70271 -0.607858,2.51519 -0.407629,0.811624 -0.961079,1.43124 -1.65834,1.87014 -0.700609,0.437367 -1.4868,0.652799 -2.36966,0.652799 -0.765822,0 -1.40849,-0.173646 -1.92627,-0.516636 -0.517592,-0.351595 -0.885252,-0.778444 -1.10183,-1.2924 -0.217058,-0.513098 -0.325874,-1.03241 -0.325874,-1.55517zm1.66809 -0.0323196l0 0c0,0.56196 0.171829,1.03671 0.515584,1.41633 0.345285,0.377987 0.794604,0.572669 1.35685,0.572669 0.45257,0 0.893188,-0.151176 1.31134,-0.453144 0.421207,-0.298335 0.766587,-0.753965 1.04083,-1.3666 0.274526,-0.609101 0.412314,-1.20606 0.412314,-1.78198 0,-0.645819 -0.174889,-1.15203 -0.522278,-1.5194 -0.347388,-0.369285 -0.78705,-0.552493 -1.32759,-0.552493 -0.823864,0 -1.49435,0.384011 -2.0107,1.15461 -0.516445,0.767161 -0.77634,1.61187 -0.77634,2.53001zm11.628 3.25176l0 0 -1.6876 0 1.71782 -8.20708 3.64399 0c0.626312,0 1.11579,0.0663604 1.46395,0.192866 0.348153,0.130043 0.633197,0.36393 0.847195,0.708737 0.212086,0.34299 0.320136,0.757503 0.320136,1.24708 0,0.696402 -0.207113,1.27672 -0.627651,1.73053 -0.416235,0.450276 -1.05039,0.731303 -1.89873,0.841266 0.217058,0.193822 0.424171,0.447789 0.611969,0.76544 0.376361,0.644098 0.79862,1.55086 1.26372,2.72116l-1.81917 0c-0.144865,-0.461654 -0.427805,-1.18512 -0.855036,-2.16264 -0.230349,-0.534039 -0.475806,-0.890989 -0.741152,-1.07343 -0.160355,-0.105565 -0.436984,-0.159686 -0.837633,-0.159686l-0.687892 0 -0.7139 3.39576zm0.969876 -4.62802l0 0 0.896917 0c0.906479,0 1.50975,-0.0532604 1.80741,-0.163319 0.296518,-0.108146 0.529067,-0.276629 0.694489,-0.50956 0.167527,-0.23121 0.25282,-0.47485 0.25282,-0.727861 0,-0.302829 -0.122489,-0.523616 -0.364791,-0.6746 -0.148881,-0.0881618 -0.470834,-0.131765 -0.967676,-0.131765l-1.858 0 -0.461176 2.20711zm5.58833 4.62802l0 0 1.71304 -8.20708 6.08661 0 -0.283227 1.37196 -4.39662 0 -0.392234 1.85981 4.24716 0 -0.283227 1.37444 -4.2507 0 -0.515775 2.22891 4.77632 0 -0.28992 1.37196 -6.41143 0zm7.90741 -2.66188l0 0 1.60613 -0.0846239c0.0224707,0.51415 0.108911,0.862303 0.263529,1.04025 0.245266,0.292311 0.703382,0.434689 1.36574,0.434689 0.552493,0 0.950369,-0.0968633 1.19458,-0.294988 0.248899,-0.198986 0.373301,-0.438132 0.373301,-0.714761 0,-0.243545 -0.100784,-0.451997 -0.30216,-0.620479 -0.143143,-0.120481 -0.532222,-0.320328 -1.1703,-0.596957 -0.635205,-0.275769 -1.10116,-0.506118 -1.39223,-0.688561 -0.294797,-0.189424 -0.526007,-0.426753 -0.69143,-0.72002 -0.167335,-0.297666 -0.251099,-0.642281 -0.251099,-1.03853 0,-0.692003 0.24823,-1.26448 0.751192,-1.72097 0.498086,-0.452092 1.22461,-0.68072 2.17115,-0.68072 0.962991,0 1.70797,0.226142 2.23732,0.675461 0.526294,0.45563 0.816788,1.05421 0.871387,1.80483l-1.61866 0.0733407c-0.0424554,-0.391947 -0.182826,-0.694776 -0.427996,-0.899786 -0.243067,-0.21046 -0.601164,-0.315929 -1.07381,-0.315929 -0.465001,0 -0.800532,0.0828071 -0.997127,0.246987 -0.201376,0.164945 -0.302447,0.371771 -0.302447,0.622201 0,0.233026 0.0914129,0.429335 0.275099,0.58118 0.181105,0.155287 0.588734,0.371771 1.21533,0.647636 0.943102,0.403135 1.54637,0.733885 1.80235,0.987852 0.384202,0.371676 0.577737,0.850829 0.577737,1.43727 0,0.727096 -0.287147,1.3449 -0.860964,1.85551 -0.572956,0.513098 -1.36852,0.770603 -2.3927,0.770603 -0.706538,0 -1.31717,-0.116943 -1.83495,-0.354273 -0.517497,-0.237521 -0.88114,-0.567315 -1.09523,-0.987948 -0.211034,-0.425127 -0.30914,-0.905045 -0.293745,-1.45926zm9.0756 2.66188l0 0 -1.68951 0 1.71686 -8.20708 3.33944 0c0.591507,0 1.0611,0.0706633 1.40562,0.210364 0.344328,0.138745 0.618758,0.371771 0.818891,0.694585 0.201376,0.323005 0.303499,0.707781 0.303499,1.15557 0,0.413653 -0.0806078,0.816788 -0.242206,1.20787 -0.157582,0.392617 -0.355803,0.706824 -0.588447,0.941572 -0.233409,0.232166 -0.486229,0.412888 -0.753774,0.534995 -0.26745,0.120481 -0.631285,0.212946 -1.08672,0.27835 -0.262477,0.034997 -0.761519,0.0523042 -1.48804,0.0523042l-1.07974 0 -0.655859 3.13147zm0.932106 -4.49099l0 0 0.521513 0c0.892615,0 1.48804,-0.0550772 1.78676,-0.169343 0.298813,-0.109007 0.536142,-0.288008 0.707111,-0.534995 0.172116,-0.246987 0.256931,-0.515775 0.256931,-0.810764 0,-0.198986 -0.0428378,-0.362114 -0.133199,-0.486898 -0.0874925,-0.130043 -0.209217,-0.220022 -0.368903,-0.279307 -0.155574,-0.0558422 -0.509464,-0.0881618 -1.05813,-0.0881618l-1.21026 0 -0.501815 2.36947zm9.55485 2.67928l0 0 -3.25367 0 -0.984314 1.81172 -1.73723 0 4.64112 -8.20708 1.87827 0 1.33046 8.20708 -1.60164 0 -0.272996 -1.81172zm-0.209886 -1.36938l0 0 -0.472555 -3.30243 -1.98087 3.30243 2.45342 0zm3.16149 3.18109l0 0 1.7181 -8.20708 1.68368 0 -1.42627 6.83512 4.17631 0 -0.28447 1.37196 -5.86735 0zm6.98716 0l0 0 1.7182 -8.20708 2.20959 0c0.61895,0 1.01176,0.00965764 1.18473,0.0261999 0.337731,0.0341364 0.643428,0.102122 0.908679,0.208643 0.265346,0.108146 0.506978,0.248613 0.727957,0.438992 0.219448,0.19191 0.405525,0.413653 0.565211,0.678043 0.157965,0.27051 0.279402,0.572478 0.365174,0.91891 0.0866319,0.344711 0.12947,0.721837 0.12947,1.13463 0,0.882288 -0.169057,1.66771 -0.504875,2.35197 -0.336009,0.684163 -0.76324,1.2269 -1.27395,1.63023 -0.394242,0.31679 -0.899117,0.547999 -1.51768,0.698123 -0.354368,0.0820421 -0.890798,0.121342 -1.61933,0.121342l-2.89318 0zm1.9626 -1.31965l0 0 0.856661 0c0.620479,0 1.07104,-0.0392999 1.34901,-0.115127 0.276056,-0.0776436 0.530883,-0.219926 0.763432,-0.430291 0.333045,-0.29757 0.611109,-0.701661 0.838302,-1.20787 0.227863,-0.50344 0.342607,-1.09695 0.342607,-1.78207 0,-0.579363 -0.0924647,-1.01922 -0.282271,-1.31076 -0.189137,-0.294128 -0.42092,-0.488715 -0.697262,-0.583857 -0.193535,-0.0663604 -0.537672,-0.105565 -1.03777,-0.105565l-0.976952 0 -1.15576 5.53555zm6.82116 -1.89978l0 0c0,-0.483456 0.0760181,-0.994928 0.220022,-1.53346 0.187607,-0.720881 0.476475,-1.3448 0.868805,-1.87282 0.388696,-0.532318 0.883531,-0.949413 1.47446,-1.25846 0.596001,-0.311531 1.26974,-0.463375 2.0282,-0.463375 1.01491,0 1.83524,0.318511 2.46012,0.946927 0.62746,0.62832 0.93899,1.46959 0.93899,2.50726 0,0.867466 -0.204245,1.70271 -0.610057,2.51519 -0.408394,0.811624 -0.961748,1.43124 -1.65729,1.87014 -0.699844,0.437367 -1.48881,0.652799 -2.36937,0.652799 -0.764579,0 -1.40724,-0.173646 -1.92866,-0.516636 -0.515775,-0.351595 -0.882288,-0.778444 -1.10097,-1.2924 -0.216484,-0.513098 -0.324248,-1.03241 -0.324248,-1.55517zm1.66733 -0.0323196l0 0c0,0.56196 0.171925,1.03671 0.517975,1.41633 0.34385,0.377987 0.794126,0.572669 1.3536,0.572669 0.455439,0 0.89271,-0.151176 1.3144,-0.453144 0.417956,-0.298335 0.764388,-0.753965 1.04188,-1.3666 0.272326,-0.609101 0.40935,-1.20606 0.40935,-1.78198 0,-0.645819 -0.176324,-1.15203 -0.519313,-1.5194 -0.348153,-0.369285 -0.789727,-0.552493 -1.32912,-0.552493 -0.823864,0 -1.49397,0.384011 -2.00984,1.15461 -0.519218,0.767161 -0.778922,1.61187 -0.778922,2.53001zm14.8567 1.44004l0 0 -3.25443 0 -0.985175 1.81172 -1.73407 0 4.6393 -8.20708 1.8754 0 1.33352 8.20708 -1.60059 0 -0.273952 -1.81172zm-0.21046 -1.36938l0 0 -0.472077 -3.30243 -1.98374 3.30243 2.45581 0zm6.1327 0.519218l0 0 1.60661 -0.0846239c0.0209408,0.51415 0.107286,0.862303 0.26439,1.04025 0.243545,0.292311 0.701661,0.434689 1.3624,0.434689 0.556796,0 0.953811,-0.0968633 1.20166,-0.294988 0.245266,-0.198986 0.368233,-0.438132 0.368233,-0.714761 0,-0.243545 -0.100306,-0.451997 -0.303594,-0.620479 -0.141518,-0.120481 -0.528971,-0.320328 -1.16695,-0.596957 -0.636066,-0.275769 -1.10212,-0.506118 -1.39452,-0.688561 -0.290685,-0.189424 -0.52266,-0.426753 -0.691143,-0.72002 -0.169343,-0.297666 -0.250525,-0.642281 -0.250525,-1.03853 0,-0.692003 0.247848,-1.26448 0.750523,-1.72097 0.500094,-0.452092 1.22537,-0.68072 2.1723,-0.68072 0.962609,0 1.70873,0.226142 2.23751,0.675461 0.524572,0.45563 0.816023,1.05421 0.8711,1.80483l-1.61808 0.0733407c-0.0427422,-0.391947 -0.185121,-0.694776 -0.428474,-0.899786 -0.241728,-0.21046 -0.60126,-0.315929 -1.07353,-0.315929 -0.465097,0 -0.801106,0.0828071 -0.998275,0.246987 -0.200802,0.164945 -0.299482,0.371771 -0.299482,0.622201 0,0.233026 0.089118,0.429335 0.273283,0.58118 0.180531,0.155287 0.585482,0.371771 1.21294,0.647636 0.946927,0.403135 1.54838,0.733885 1.80321,0.987852 0.386497,0.371676 0.577642,0.850829 0.577642,1.43727 0,0.727096 -0.285331,1.3449 -0.858765,1.85551 -0.575155,0.513098 -1.36928,0.770603 -2.39471,0.770603 -0.704243,0 -1.31516,-0.116943 -1.83266,-0.354273 -0.518453,-0.237521 -0.882288,-0.567315 -1.09437,-0.987948 -0.214763,-0.425127 -0.31067,-0.905045 -0.296709,-1.45926zm9.10935 -5.54521l0 0 1.68511 0 -0.931054 4.45695 -0.228819 1.09791c-0.0155861,0.0934209 -0.0199846,0.180722 -0.0199846,0.263529 0,0.323866 0.115127,0.590837 0.354368,0.802062 0.235608,0.210364 0.579458,0.315069 1.03155,0.315069 0.408394,0 0.743543,-0.0724801 1.00889,-0.228724 0.263434,-0.151845 0.471981,-0.379612 0.614264,-0.683302 0.148403,-0.302925 0.294128,-0.816023 0.444156,-1.54302l0.941763 -4.48048 1.68607 0 -0.934592 4.49013c-0.199846,0.94511 -0.428665,1.66523 -0.685119,2.1679 -0.258366,0.497416 -0.649261,0.906766 -1.1703,1.21906 -0.521895,0.313347 -1.18253,0.469591 -1.98115,0.469591 -0.955533,0 -1.6877,-0.232166 -2.19563,-0.701757 -0.506213,-0.471981 -0.761137,-1.07162 -0.761137,-1.80636 0,-0.15194 0.012335,-0.315164 0.0392999,-0.495791 0.0131956,-0.123063 0.0785042,-0.459933 0.195543,-1.02027l0.906766 -4.32251zm9.67323 8.20708l0 0 1.71916 -8.20708 1.68521 0 -1.71227 8.20708 -1.69209 0zm9.8223 0l0 0 -1.57343 0 -2.21762 -5.51298 -1.15194 5.51298 -1.57267 0 1.71131 -8.20708 1.57792 0 2.2246 5.49022 1.1484 -5.49022 1.56387 0 -1.71045 8.20708zm5.82365 0l0 0 -1.80397 0 -1.47226 -8.20708 1.68435 0 1.04197 6.20766 3.40006 -6.20766 1.67402 0 -4.52417 8.20708zm3.54311 0l0 0 1.71323 -8.20708 6.08632 0 -0.28447 1.37196 -4.39681 0 -0.391852 1.85981 4.24841 0 -0.284566 1.37444 -4.24927 0 -0.512333 2.22891 4.77384 0 -0.29145 1.37196 -6.41105 0zm9.3748 0l0 0 -1.69143 0 1.71667 -8.20708 3.64447 0c0.626599,0 1.11704,0.0663604 1.46701,0.192866 0.348153,0.130043 0.629277,0.36393 0.844804,0.708737 0.212946,0.34299 0.321953,0.757503 0.321953,1.24708 0,0.696402 -0.208452,1.27672 -0.626599,1.73053 -0.420633,0.450276 -1.05163,0.731303 -1.89806,0.841266 0.215528,0.193822 0.420633,0.447789 0.608144,0.76544 0.378847,0.644098 0.797759,1.55086 1.26123,2.72116l-1.81439 0c-0.14496,-0.461654 -0.430291,-1.18512 -0.856183,-2.16264 -0.23121,-0.534039 -0.478197,-0.890989 -0.740961,-1.07343 -0.159686,-0.105565 -0.437176,-0.159686 -0.838589,-0.159686l-0.689517 0 -0.708546 3.39576zm0.96519 -4.62802l0 0 0.897109 0c0.907627,0 1.50889,-0.0532604 1.80569,-0.163319 0.29757,-0.108146 0.531457,-0.276629 0.697262,-0.50956 0.166666,-0.23121 0.252246,-0.47485 0.252246,-0.727861 0,-0.302829 -0.121342,-0.523616 -0.364026,-0.6746 -0.149168,-0.0881618 -0.472937,-0.131765 -0.968633,-0.131765l-1.85714 0 -0.462515 2.20711zm5.84794 1.96614l0 0 1.60498 -0.0846239c0.022662,0.51415 0.110824,0.862303 0.263529,1.04025 0.246987,0.292311 0.703478,0.434689 1.36584,0.434689 0.552493,0 0.952951,-0.0968633 1.19908,-0.294988 0.246987,-0.198986 0.371006,-0.438132 0.371006,-0.714761 0,-0.243545 -0.102122,-0.451997 -0.302925,-0.620479 -0.143048,-0.120481 -0.529736,-0.320328 -1.16943,-0.596957 -0.636161,-0.275769 -1.09877,-0.506118 -1.3929,-0.688561 -0.29145,-0.189424 -0.523616,-0.426753 -0.691143,-0.72002 -0.167622,-0.297666 -0.253107,-0.642281 -0.253107,-1.03853 0,-0.692003 0.252246,-1.26448 0.749758,-1.72097 0.501815,-0.452092 1.22786,-0.68072 2.17469,-0.68072 0.963565,0 1.70797,0.226142 2.23512,0.675461 0.527919,0.45563 0.818604,1.05421 0.871769,1.80483l-1.61799 0.0733407c-0.0410211,-0.391947 -0.184164,-0.694776 -0.426657,-0.899786 -0.241823,-0.21046 -0.598774,-0.315929 -1.07267,-0.315929 -0.46873,0 -0.803879,0.0828071 -1.00019,0.246987 -0.201472,0.164945 -0.301969,0.371771 -0.301969,0.622201 0,0.233026 0.0934209,0.429335 0.274908,0.58118 0.18426,0.155287 0.588351,0.371771 1.21495,0.647636 0.946831,0.403135 1.54551,0.733885 1.80474,0.987852 0.383915,0.371676 0.576781,0.850829 0.576781,1.43727 0,0.727096 -0.286191,1.3449 -0.859626,1.85551 -0.572478,0.513098 -1.37091,0.770603 -2.39385,0.770603 -0.705103,0 -1.31851,-0.116943 -1.83447,-0.354273 -0.514819,-0.237521 -0.882288,-0.567315 -1.09428,-0.987948 -0.213807,-0.425127 -0.31067,-0.905045 -0.295945,-1.45926zm7.31609 2.66188l0 0 1.72002 -8.20708 1.68272 0 -1.70883 8.20708 -1.69391 0zm3.79019 -3.21944l0 0c0,-0.483456 0.0749662,-0.994928 0.21897,-1.53346 0.192866,-0.720881 0.480874,-1.3448 0.870144,-1.87282 0.38927,-0.532318 0.884965,-0.949413 1.47752,-1.25846 0.592463,-0.311531 1.26888,-0.463375 2.02638,-0.463375 1.01587,0 1.83533,0.318511 2.46193,0.946927 0.623922,0.62832 0.934687,1.46959 0.934687,2.50726 0,0.867466 -0.200707,1.70271 -0.609196,2.51519 -0.404952,0.811624 -0.957254,1.43124 -1.65719,1.87014 -0.69994,0.437367 -1.48804,0.652799 -2.36689,0.652799 -0.767065,0 -1.40935,-0.173646 -1.92962,-0.516636 -0.514819,-0.351595 -0.884009,-0.778444 -1.10307,-1.2924 -0.214667,-0.513098 -0.323674,-1.03241 -0.323674,-1.55517zm1.66943 -0.0323196l0 0c0,0.56196 0.171065,1.03671 0.514915,1.41633 0.34385,0.377987 0.795082,0.572669 1.35618,0.572669 0.456491,0 0.890989,-0.151176 1.31344,-0.453144 0.419773,-0.298335 0.763623,-0.753965 1.04293,-1.3666 0.272135,-0.609101 0.407533,-1.20606 0.407533,-1.78198 0,-0.645819 -0.173742,-1.15203 -0.519313,-1.5194 -0.347293,-0.369285 -0.788006,-0.552493 -1.3273,-0.552493 -0.825585,0 -1.4932,0.384011 -2.01252,1.15461 -0.515775,0.767161 -0.775862,1.61187 -0.775862,2.53001zm13.2826 3.25176l0 0 -1.57343 0 -2.21762 -5.51298 -1.15356 5.51298 -1.5719 0 1.70969 -8.20708 1.58137 0 2.22269 5.49022 1.14773 -5.49022 1.56655 0 -1.71151 8.20708z"/>
   <path id="_564868200" class="fil3" d="M79.0201 45.1547l7.13049 -34.0661 6.99567 0 -7.10668 34.0661 -7.01948 0zm11.7179 0l7.1304 -34.0661 9.17686 0c2.56186,0 4.19581,0.0396824 4.90962,0.119047 1.4039,0.134824 2.66503,0.420346 3.77547,0.856566 1.1025,0.436219 2.10976,1.03901 3.01395,1.82424 0.912121,0.785233 1.68942,1.72116 2.34776,2.82366 0.658345,1.1025 1.16599,2.36364 1.52285,3.79918 0.35695,1.43564 0.539394,2.99817 0.539394,4.70346 0,3.67229 -0.705964,6.93218 -2.10192,9.77171 -1.4038,2.84738 -3.16465,5.1 -5.29028,6.77354 -1.62602,1.30082 -3.72785,2.26046 -6.29774,2.88706 -1.45936,0.341077 -3.6961,0.507648 -6.71799,0.507648l-12.0084 0zm8.15363 -5.48076l3.55334 0c2.57773,0 4.43372,-0.158634 5.59177,-0.475806 1.15002,-0.325204 2.21284,-0.912217 3.17258,-1.78466 1.38009,-1.2532 2.53814,-2.92674 3.48201,-5.0127 0.943771,-2.09399 1.41967,-4.5607 1.41967,-7.3923 0,-2.4191 -0.3886,-4.2354 -1.17383,-5.44892 -0.785233,-1.21361 -1.74497,-2.02256 -2.895,-2.42713 -0.801106,-0.277585 -2.23675,-0.420346 -4.29889,-0.420346l-4.06099 0 -4.79067 22.9619zm24.1704 5.48076l7.11462 -34.0661 25.2542 0 -1.18177 5.69495 -18.2426 0 -1.62602 7.73328 17.6319 0 -1.18177 5.69485 -17.6398 0 -2.13357 9.24819 19.8209 0 -1.20558 5.69485 -26.6104 0zm30.8885 -11.0408l6.67046 -0.348918c0.0873012,2.12564 0.452092,3.56128 1.08663,4.29889 1.02323,1.21352 2.91881,1.81631 5.67114,1.81631 2.29221,0 3.94988,-0.41241 4.97302,-1.22939 1.02323,-0.824915 1.53872,-1.81631 1.53872,-2.97436 0,-1.00726 -0.420346,-1.86392 -1.26104,-2.56186 -0.587012,-0.507648 -2.205,-1.3404 -4.84622,-2.48259 -2.64122,-1.15012 -4.56864,-2.10183 -5.78215,-2.87119 -1.21352,-0.76936 -2.17326,-1.76085 -2.87119,-2.9823 -0.698027,-1.22939 -1.04695,-2.65709 -1.04695,-4.29889 0,-2.87128 1.03901,-5.24276 3.11712,-7.13843 2.07802,-1.88773 5.08413,-2.8316 9.01813,-2.8316 3.9975,0 7.09081,0.93593 9.27994,2.80779 2.18913,1.8798 3.39471,4.37032 3.61683,7.48744l-6.71808 0.301395c-0.174507,-1.62602 -0.761424,-2.87922 -1.76869,-3.74372 -1.00736,-0.864598 -2.49052,-1.30082 -4.45762,-1.30082 -1.93526,0 -3.32328,0.341077 -4.1482,1.02323 -0.832756,0.682059 -1.24526,1.53872 -1.24526,2.57773 0,0.975613 0.38076,1.78456 1.14218,2.4191 0.753487,0.650409 2.43497,1.53872 5.03651,2.67297 3.92617,1.68942 6.41669,3.05363 7.48744,4.10851 1.59428,1.55459 2.39529,3.54541 2.39529,5.97253 0,3.00601 -1.18971,5.5759 -3.56912,7.70154 -2.37951,2.13357 -5.68701,3.19639 -9.93829,3.19639 -2.92674,0 -5.46489,-0.491775 -7.6064,-1.47523 -2.14945,-0.983549 -3.66436,-2.34776 -4.54483,-4.10067 -0.880375,-1.75281 -1.29279,-3.7595 -1.22939,-6.04387zm51.0585 3.51376l-13.5075 0 -4.0847 7.52703 -7.20192 0 19.2579 -34.0661 7.78874 0 5.52838 34.0661 -6.64666 0 -1.13425 -7.52703zm-0.864502 -5.67114l-1.97504 -13.7137 -8.22496 13.7137 10.2 0z"/>
  </g>
 </g>
</svg>
