<?xml version="1.0" encoding="UTF-8"?><svg id="Layer_2" xmlns="http://www.w3.org/2000/svg" width="225.83" height="138.91" viewBox="0 0 225.83 138.91"><defs><style>.cls-1{fill:#000;}.cls-1,.cls-2{fill-rule:evenodd;stroke-width:0px;}.cls-2{fill:#ef6b01;}</style></defs><g id="Layer_1-2"><g id="Capa_1"><g id="_564867528"><path id="_564869544" class="cls-2" d="M26.12,29.6h159.39l-19.55,106.45H7.53c-3.64,0-6.2-2.42-5.69-5.37L18.56,34.97c.51-2.96,3.9-5.38,7.55-5.38h0Z"/><path id="_564869688" class="cls-1" d="M167.44,137.84H7.53c-2.5,0-4.74-.96-6.14-2.61-1.15-1.37-1.61-3.09-1.3-4.85L16.81,34.66c.67-3.84,4.76-6.85,9.3-6.85h161.54l-20.21,110.03h0ZM26.12,31.38h0c-2.77,0-5.42,1.79-5.8,3.9L3.6,130.99c-.13.72.05,1.38.52,1.95.7.84,1.98,1.33,3.41,1.33h156.94l18.89-102.89H26.11h0Z"/><polygon id="_564869064" class="cls-2" points="193.32 32.04 174.77 133.61 223.61 84.77 193.32 32.04"/><path id="_564869424" class="cls-1" d="M171.99,138.91l20.46-111.97,33.38,58.13-53.84,53.84h0ZM194.2,37.14h0l-16.65,91.18,43.83-43.83-27.17-47.34h0Z"/><polygon id="_564868584" class="cls-1" points="76.82 39.61 167.67 39.61 164.68 56.7 73.6 56.7 76.82 39.61"/><path id="_564868848" class="cls-1" d="M166.1,58.38h-94.53l3.86-20.46h94.25l-3.58,20.46ZM75.63,55.01h87.64l2.4-13.72h-87.45l-2.59,13.72h0Z"/><polygon id="_564868440" class="cls-1" points="31.9 39.65 16.18 123.63 47.65 123.63 63.64 39.65 31.9 39.65"/><path id="_564868272" class="cls-1" d="M49.74,126.16H13.13L29.8,37.13h36.88l-16.95,89.04h0ZM19.22,121.12h26.35l15.02-78.95h-26.59l-14.78,78.95h0Z"/><polygon id="_564868776" class="cls-1" points="64 107.24 155.77 107.24 152.81 124.32 60.71 124.37 64 107.24"/><path id="_564868392" class="cls-1" d="M58.67,126.06l3.93-20.5h95.17l-3.55,20.47-95.55.04h0ZM65.39,108.93h0l-2.64,13.76,88.64-.04,2.38-13.72h-88.39Z"/><path id="_564868320" class="cls-1" d="M50.24.29c9.44,0,17.09,6.57,17.09,14.65s-7.65,14.65-17.09,14.65-17.09-6.56-17.09-14.65S40.81.29,50.24.29Z"/><path id="_564868056" class="cls-1" d="M50.24,29.89c-9.59,0-17.39-6.7-17.39-14.95S40.65,0,50.24,0s17.39,6.71,17.39,14.95-7.8,14.95-17.39,14.95ZM50.24.59h0c-9.26,0-16.79,6.44-16.79,14.36s7.53,14.35,16.79,14.35,16.8-6.45,16.8-14.35S59.5.59,50.24.59Z"/><polygon id="_564867936" class="cls-1" points="70.42 73.47 161.86 73.47 158.89 90.57 67.24 90.57 70.42 73.47"/><path id="_564867984" class="cls-1" d="M160.31,92.24h-95.09l3.8-20.44h94.84l-3.55,20.44h0ZM69.27,88.88h88.21l2.38-13.73h-88.04l-2.55,13.73h0Z"/></g></g></g></svg>